<!-- icon666.com - MILLIONS vector ICONS FREE --><svg id="Layer_1" enable-background="new 0 0 124 124" viewBox="0 0 124 124" xmlns="http://www.w3.org/2000/svg"><path d="m13.657 101.36.217-85.679c0-3.548 2.93-6.343 6.403-6.343h73.26c2.997 0 5.427 2.407 5.427 5.375v87.91l-.217 4.757c0 7.955-6.512 14.405-14.543 14.405h-1.085c-8.031 0-13.892-3.01-13.024-20.64z" fill="#fff"></path><ellipse cx="21.941" cy="19.765" fill="#9da6fc" rx="19.658" ry="19.765" style="fill: rgb(121, 133, 236);"></ellipse><path d="m82.249 121.785c.977.108-61.863.215-61.863.215-18.668-.43-17.366-20.64-17.366-20.64h13.024l54.049-.215c-.868 16.985 4.559 20.425 12.156 20.64z" fill="#83f2ec" style="fill: rgb(41, 111, 205);"></path><g fill="#010101"><path d="m35.256 33.952 13.736 7.078v-3.735l-9.11-4.569 9.11-4.568v-3.735l-13.736 7.078z" fill="#010101"></path><path d="m50.506 41.513h3.582l7.915-20.5h-3.611z" fill="#010101"></path><path d="m63.461 24.426v3.733l9.176 4.567-9.176 4.567v3.734l13.736-7.048v-2.505z" fill="#010101"></path></g><path d="m110.205 22.127c.98-2.104 3.517-2.954 5.693-1.927l2.611 1.28c1.057.512 1.806 1.382 2.184 2.425s.323 2.197-.056 3.319l-2.494 5.28-10.519-4.938z" fill="#fff"></path><path d="m88.441 85.314c-.432.415-1.051.521-1.611.204-.497-.255-.873-.812-.814-1.419l1.718-13.76 10.585 4.969z" fill="#fff"></path><path d="m118.144 32.505-19.826 42.803-10.585-4.97 19.891-42.771z" fill="#83f2ec" style="fill: rgb(41, 111, 205);"></path><path d="m88.158 57.209h-63.696c-1.104 0-1.999-.896-1.999-2s.895-2 1.999-2h63.695c1.104 0 1.999.896 1.999 2s-.894 2-1.998 2z" fill="#010101"></path><path d="m119.389 19.685-2.638-1.293c-3.071-1.449-6.895-.237-8.354 2.884l-7.434 15.949v-22.512c0-4.066-3.331-7.375-7.425-7.375h-73.26c-4.633 0-8.402 3.743-8.402 8.338l-.213 83.684h-8.643c-1.054 0-1.927.819-1.995 1.872-.027.421-.594 10.393 5.51 17.058 3.347 3.655 7.992 5.576 13.854 5.71 0 0 15.468-.026 30.937-.066 7.735-.02 15.471-.043 21.273-.068 2.903-.012 11.604-.081 11.604-.081 9.122 0 16.543-7.359 16.541-16.314l.219-33.111 21.483-46.281c1.455-3.062-.088-6.955-3.057-8.394zm-98.958 100.315c-4.672-.107-8.351-1.586-10.933-4.396-3.547-3.858-4.315-9.386-4.464-12.245l62.984-.207c-.183 8.075 1.143 13.421 4.124 16.715-14.218.06-39.853.113-51.711.133zm76.316-12.62c0 6.84-5.627 12.405-12.545 12.405h-1.085c-3.812 0-6.24-.766-7.874-2.482-2.516-2.644-3.153-16.059-3.153-16.06.052-1.116-.924-2.099-2.004-2.099l-54.425.208.212-83.671c0-2.395 1.976-4.343 4.404-4.343h73.26c1.89 0 3.427 1.514 3.427 3.375l.001 31.088-10.523 22.574h-61.98c-1.104 0-1.999.896-1.999 2s.895 2 1.999 2h61.003l-1.393 11.166h-59.61c-1.104 0-1.999.896-1.999 2s.895 2 1.999 2h62.088c1.158.347 2.4.056 3.275-.785.013-.012.025-.024.038-.037l7.102-7.195zm-8.543-24.672 1.172-9.389 5.532 2.597zm9.145-10.065-3.845-1.805-3.118-1.464 18.204-39.145 6.903 3.24zm21.427-46.158-1.589 3.362-6.896-3.237 1.719-3.625c.599-1.078 1.892-1.515 3.007-.989l2.619 1.284c1.23.596 1.521 1.98 1.14 3.205z" fill="#010101"></path></svg>