<svg xmlns="http://www.w3.org/2000/svg" xmlns:xlink="http://www.w3.org/1999/xlink" width="500" zoomAndPan="magnify" viewBox="0 0 375 374.999991" height="500" preserveAspectRatio="xMidYMid meet" version="1.0"><defs><g/></defs><g fill="#296fcd" fill-opacity="1"><g transform="translate(34.388674, 209.999986)"><g><path d="M 39.4375 0 L 11.59375 0 C 9.894531 0 8.335938 -0.414062 6.921875 -1.25 C 5.515625 -2.082031 4.394531 -3.203125 3.5625 -4.609375 C 2.726562 -6.023438 2.3125 -7.582031 2.3125 -9.28125 L 2.3125 -18.5625 L 11.59375 -18.5625 L 11.59375 -9.28125 L 39.4375 -9.28125 L 39.4375 -37.125 L 20.875 -37.125 L 20.875 -46.40625 L 48.71875 -46.40625 L 48.71875 -9.28125 C 48.71875 -7.613281 48.300781 -6.070312 47.46875 -4.65625 C 46.632812 -3.25 45.519531 -2.117188 44.125 -1.265625 C 42.738281 -0.421875 41.175781 0 39.4375 0 Z M 39.4375 0 "/></g></g></g><g fill="#296fcd" fill-opacity="1"><g transform="translate(85.425292, 209.999986)"><g><path d="M 39.4375 0 L 11.59375 0 C 9.894531 0 8.335938 -0.414062 6.921875 -1.25 C 5.515625 -2.082031 4.394531 -3.203125 3.5625 -4.609375 C 2.726562 -6.023438 2.3125 -7.582031 2.3125 -9.28125 L 2.3125 -37.125 C 2.3125 -38.820312 2.726562 -40.375 3.5625 -41.78125 C 4.394531 -43.195312 5.515625 -44.320312 6.921875 -45.15625 C 8.335938 -45.988281 9.894531 -46.40625 11.59375 -46.40625 L 39.4375 -46.40625 C 41.132812 -46.40625 42.6875 -45.988281 44.09375 -45.15625 C 45.507812 -44.320312 46.632812 -43.195312 47.46875 -41.78125 C 48.300781 -40.375 48.71875 -38.820312 48.71875 -37.125 L 48.71875 -9.28125 C 48.71875 -7.613281 48.300781 -6.070312 47.46875 -4.65625 C 46.632812 -3.25 45.519531 -2.117188 44.125 -1.265625 C 42.738281 -0.421875 41.175781 0 39.4375 0 Z M 11.59375 -37.125 L 11.59375 -9.28125 L 39.4375 -9.28125 L 39.4375 -37.125 Z M 11.59375 -37.125 "/></g></g></g><g fill="#296fcd" fill-opacity="1"><g transform="translate(136.46191, 209.999986)"><g><path d="M 48.71875 -46.40625 L 48.71875 -37.125 L 11.59375 -37.125 L 11.59375 -27.84375 L 39.4375 -27.84375 C 41.132812 -27.84375 42.6875 -27.425781 44.09375 -26.59375 C 45.507812 -25.757812 46.632812 -24.632812 47.46875 -23.21875 C 48.300781 -21.8125 48.71875 -20.257812 48.71875 -18.5625 L 48.71875 -9.28125 C 48.71875 -7.582031 48.300781 -6.023438 47.46875 -4.609375 C 46.632812 -3.203125 45.507812 -2.082031 44.09375 -1.25 C 42.6875 -0.414062 41.132812 0 39.4375 0 L 2.3125 0 L 2.3125 -9.28125 L 39.4375 -9.28125 L 39.4375 -18.5625 L 11.59375 -18.5625 C 9.894531 -18.5625 8.335938 -18.972656 6.921875 -19.796875 C 5.515625 -20.628906 4.394531 -21.75 3.5625 -23.15625 C 2.726562 -24.570312 2.3125 -26.132812 2.3125 -27.84375 L 2.3125 -37.125 C 2.3125 -38.820312 2.726562 -40.375 3.5625 -41.78125 C 4.394531 -43.195312 5.515625 -44.320312 6.921875 -45.15625 C 8.335938 -45.988281 9.894531 -46.40625 11.59375 -46.40625 Z M 48.71875 -46.40625 "/></g></g></g><g fill="#296fcd" fill-opacity="1"><g transform="translate(187.498527, 209.999986)"><g><path d="M 39.4375 0 L 11.59375 0 C 9.894531 0 8.335938 -0.414062 6.921875 -1.25 C 5.515625 -2.082031 4.394531 -3.203125 3.5625 -4.609375 C 2.726562 -6.023438 2.3125 -7.582031 2.3125 -9.28125 L 2.3125 -46.40625 L 11.59375 -46.40625 L 11.59375 -9.28125 L 39.4375 -9.28125 L 39.4375 -46.40625 L 48.71875 -46.40625 L 48.71875 -9.28125 C 48.71875 -7.582031 48.300781 -6.023438 47.46875 -4.609375 C 46.632812 -3.203125 45.507812 -2.082031 44.09375 -1.25 C 42.6875 -0.414062 41.132812 0 39.4375 0 Z M 39.4375 0 "/></g></g></g><g fill="#296fcd" fill-opacity="1"><g transform="translate(238.535145, 209.999986)"><g><path d="M 48.71875 -46.40625 L 48.71875 -37.125 L 11.59375 -37.125 L 11.59375 -27.84375 L 48.71875 -27.84375 L 48.71875 -18.5625 L 11.59375 -18.5625 L 11.59375 -9.28125 L 48.71875 -9.28125 L 48.71875 0 L 11.59375 0 C 9.894531 0 8.335938 -0.414062 6.921875 -1.25 C 5.515625 -2.082031 4.394531 -3.203125 3.5625 -4.609375 C 2.726562 -6.023438 2.3125 -7.582031 2.3125 -9.28125 L 2.3125 -37.125 C 2.3125 -38.820312 2.726562 -40.375 3.5625 -41.78125 C 4.394531 -43.195312 5.515625 -44.320312 6.921875 -45.15625 C 8.335938 -45.988281 9.894531 -46.40625 11.59375 -46.40625 Z M 48.71875 -46.40625 "/></g></g></g><g fill="#296fcd" fill-opacity="1"><g transform="translate(289.571762, 209.999986)"><g><path d="M 48.71875 0 L 11.59375 0 C 9.894531 0 8.335938 -0.414062 6.921875 -1.25 C 5.515625 -2.082031 4.394531 -3.203125 3.5625 -4.609375 C 2.726562 -6.023438 2.3125 -7.582031 2.3125 -9.28125 L 2.3125 -46.40625 L 11.59375 -46.40625 L 11.59375 -9.28125 L 48.71875 -9.28125 Z M 48.71875 0 "/></g></g></g></svg>