<svg xmlns="http://www.w3.org/2000/svg" xmlns:xlink="http://www.w3.org/1999/xlink" width="40" zoomAndPan="magnify" viewBox="0 0 30 30.000001" height="40" preserveAspectRatio="xMidYMid meet" version="1.0"><defs><g/></defs><g fill="#296fcd" fill-opacity="1"><g transform="translate(0.817682, 18.580674)"><g><path d="M 7.226562 0 C 8.171875 0 8.925781 -0.777344 8.925781 -1.699219 L 8.925781 -8.503906 L 3.824219 -8.503906 L 3.824219 -6.800781 L 7.226562 -6.800781 L 7.226562 -1.699219 L 2.125 -1.699219 L 2.125 -3.402344 L 0.425781 -3.402344 L 0.425781 -1.699219 C 0.425781 -0.765625 1.191406 0 2.125 0 Z M 7.226562 0 "/></g></g></g><g fill="#296fcd" fill-opacity="1"><g transform="translate(10.169964, 18.580674)"><g><path d="M 8.925781 -8.503906 L 2.125 -8.503906 C 1.191406 -8.503906 0.425781 -7.738281 0.425781 -6.800781 L 0.425781 0 L 2.125 0 L 2.125 -3.402344 L 8.925781 -3.402344 L 8.925781 -5.101562 L 2.125 -5.101562 L 2.125 -6.800781 L 8.925781 -6.800781 Z M 8.925781 -8.503906 "/></g></g></g><g fill="#296fcd" fill-opacity="1"><g transform="translate(19.522245, 18.580674)"><g><path d="M 8.925781 0 L 8.925781 -1.699219 L 2.125 -1.699219 L 2.125 -6.800781 L 8.925781 -6.800781 L 8.925781 -8.503906 L 2.125 -8.503906 C 1.191406 -8.503906 0.425781 -7.738281 0.425781 -6.800781 L 0.425781 -1.699219 C 0.425781 -0.765625 1.191406 0 2.125 0 Z M 8.925781 0 "/></g></g></g></svg>