<svg xmlns="http://www.w3.org/2000/svg" xmlns:xlink="http://www.w3.org/1999/xlink" width="40" zoomAndPan="magnify" viewBox="0 0 30 30.000001" height="40" preserveAspectRatio="xMidYMid meet" version="1.0"><defs><g/></defs><g fill="#ffffff" fill-opacity="1"><g transform="translate(0.973927, 16.360579)"><g><path d="M 7.226562 0 C 8.171875 0 8.925781 -0.777344 8.925781 -1.699219 L 8.925781 -8.5 L 3.824219 -8.5 L 3.824219 -6.800781 L 7.226562 -6.800781 L 7.226562 -1.699219 L 2.125 -1.699219 L 2.125 -3.398438 L 0.425781 -3.398438 L 0.425781 -1.699219 C 0.425781 -0.765625 1.191406 0 2.125 0 Z M 7.226562 0 "/></g></g></g><g fill="#ffffff" fill-opacity="1"><g transform="translate(10.315107, 16.360579)"><g><path d="M 8.925781 -8.5 L 2.125 -8.5 C 1.191406 -8.5 0.425781 -7.734375 0.425781 -6.800781 L 0.425781 0 L 2.125 0 L 2.125 -3.398438 L 8.925781 -3.398438 L 8.925781 -5.101562 L 2.125 -5.101562 L 2.125 -6.800781 L 8.925781 -6.800781 Z M 8.925781 -8.5 "/></g></g></g><g fill="#ffffff" fill-opacity="1"><g transform="translate(19.656288, 16.360579)"><g><path d="M 8.925781 0 L 8.925781 -1.699219 L 2.125 -1.699219 L 2.125 -6.800781 L 8.925781 -6.800781 L 8.925781 -8.5 L 2.125 -8.5 C 1.191406 -8.5 0.425781 -7.734375 0.425781 -6.800781 L 0.425781 -1.699219 C 0.425781 -0.765625 1.191406 0 2.125 0 Z M 8.925781 0 "/></g></g></g><g fill="#ffffff" fill-opacity="1"><g transform="translate(1.591511, 22.258263)"><g><path d="M 1.5 0 L 0.875 0 L 0.875 -2.421875 L 0.078125 -2.421875 L 0.078125 -2.9375 L 2.3125 -2.9375 L 2.3125 -2.421875 L 1.5 -2.421875 Z M 1.5 0 "/></g></g><g transform="translate(3.982886, 22.258263)"><g><path d="M 2.0625 0 L 0.375 0 L 0.375 -2.9375 L 2.0625 -2.9375 L 2.0625 -2.4375 L 1 -2.4375 L 1 -1.78125 L 1.984375 -1.78125 L 1.984375 -1.28125 L 1 -1.28125 L 1 -0.515625 L 2.0625 -0.515625 Z M 2.0625 0 "/></g></g><g transform="translate(6.295624, 22.258263)"><g><path d="M 1.625 -2.46875 C 1.382812 -2.46875 1.195312 -2.378906 1.0625 -2.203125 C 0.9375 -2.023438 0.875 -1.78125 0.875 -1.46875 C 0.875 -0.8125 1.125 -0.484375 1.625 -0.484375 C 1.832031 -0.484375 2.082031 -0.535156 2.375 -0.640625 L 2.375 -0.109375 C 2.132812 -0.00390625 1.863281 0.046875 1.5625 0.046875 C 1.132812 0.046875 0.804688 -0.0820312 0.578125 -0.34375 C 0.347656 -0.601562 0.234375 -0.976562 0.234375 -1.46875 C 0.234375 -1.769531 0.289062 -2.035156 0.40625 -2.265625 C 0.519531 -2.503906 0.679688 -2.679688 0.890625 -2.796875 C 1.097656 -2.921875 1.34375 -2.984375 1.625 -2.984375 C 1.90625 -2.984375 2.191406 -2.914062 2.484375 -2.78125 L 2.28125 -2.265625 C 2.164062 -2.316406 2.050781 -2.363281 1.9375 -2.40625 C 1.832031 -2.445312 1.726562 -2.46875 1.625 -2.46875 Z M 1.625 -2.46875 "/></g></g><g transform="translate(8.926943, 22.258263)"><g><path d="M 2.984375 0 L 2.1875 0 L 0.90625 -2.234375 L 0.890625 -2.234375 C 0.910156 -1.835938 0.921875 -1.554688 0.921875 -1.390625 L 0.921875 0 L 0.375 0 L 0.375 -2.9375 L 1.15625 -2.9375 L 2.4375 -0.734375 L 2.453125 -0.734375 C 2.429688 -1.117188 2.421875 -1.390625 2.421875 -1.546875 L 2.421875 -2.9375 L 2.984375 -2.9375 Z M 2.984375 0 "/></g></g><g transform="translate(12.284142, 22.258263)"><g><path d="M 3.046875 -1.46875 C 3.046875 -0.988281 2.921875 -0.613281 2.671875 -0.34375 C 2.429688 -0.0820312 2.085938 0.046875 1.640625 0.046875 C 1.191406 0.046875 0.84375 -0.0820312 0.59375 -0.34375 C 0.351562 -0.613281 0.234375 -0.992188 0.234375 -1.484375 C 0.234375 -1.972656 0.351562 -2.34375 0.59375 -2.59375 C 0.84375 -2.851562 1.191406 -2.984375 1.640625 -2.984375 C 2.097656 -2.984375 2.445312 -2.851562 2.6875 -2.59375 C 2.925781 -2.332031 3.046875 -1.957031 3.046875 -1.46875 Z M 0.890625 -1.46875 C 0.890625 -1.144531 0.953125 -0.898438 1.078125 -0.734375 C 1.203125 -0.566406 1.390625 -0.484375 1.640625 -0.484375 C 2.140625 -0.484375 2.390625 -0.8125 2.390625 -1.46875 C 2.390625 -2.132812 2.140625 -2.46875 1.640625 -2.46875 C 1.390625 -2.46875 1.203125 -2.382812 1.078125 -2.21875 C 0.953125 -2.050781 0.890625 -1.800781 0.890625 -1.46875 Z M 0.890625 -1.46875 "/></g></g><g transform="translate(15.570771, 22.258263)"><g><path d="M 0.375 0 L 0.375 -2.9375 L 1 -2.9375 L 1 -0.515625 L 2.1875 -0.515625 L 2.1875 0 Z M 0.375 0 "/></g></g><g transform="translate(17.903672, 22.258263)"><g><path d="M 3.046875 -1.46875 C 3.046875 -0.988281 2.921875 -0.613281 2.671875 -0.34375 C 2.429688 -0.0820312 2.085938 0.046875 1.640625 0.046875 C 1.191406 0.046875 0.84375 -0.0820312 0.59375 -0.34375 C 0.351562 -0.613281 0.234375 -0.992188 0.234375 -1.484375 C 0.234375 -1.972656 0.351562 -2.34375 0.59375 -2.59375 C 0.84375 -2.851562 1.191406 -2.984375 1.640625 -2.984375 C 2.097656 -2.984375 2.445312 -2.851562 2.6875 -2.59375 C 2.925781 -2.332031 3.046875 -1.957031 3.046875 -1.46875 Z M 0.890625 -1.46875 C 0.890625 -1.144531 0.953125 -0.898438 1.078125 -0.734375 C 1.203125 -0.566406 1.390625 -0.484375 1.640625 -0.484375 C 2.140625 -0.484375 2.390625 -0.8125 2.390625 -1.46875 C 2.390625 -2.132812 2.140625 -2.46875 1.640625 -2.46875 C 1.390625 -2.46875 1.203125 -2.382812 1.078125 -2.21875 C 0.953125 -2.050781 0.890625 -1.800781 0.890625 -1.46875 Z M 0.890625 -1.46875 "/></g></g><g transform="translate(21.1903, 22.258263)"><g><path d="M 1.484375 -1.65625 L 2.65625 -1.65625 L 2.65625 -0.125 C 2.46875 -0.0625 2.289062 -0.0195312 2.125 0 C 1.957031 0.03125 1.785156 0.046875 1.609375 0.046875 C 1.160156 0.046875 0.816406 -0.0820312 0.578125 -0.34375 C 0.347656 -0.613281 0.234375 -0.988281 0.234375 -1.46875 C 0.234375 -1.945312 0.367188 -2.316406 0.640625 -2.578125 C 0.921875 -2.847656 1.300781 -2.984375 1.78125 -2.984375 C 2.082031 -2.984375 2.375 -2.925781 2.65625 -2.8125 L 2.4375 -2.3125 C 2.226562 -2.414062 2.007812 -2.46875 1.78125 -2.46875 C 1.507812 -2.46875 1.289062 -2.375 1.125 -2.1875 C 0.957031 -2.007812 0.875 -1.769531 0.875 -1.46875 C 0.875 -1.144531 0.941406 -0.898438 1.078125 -0.734375 C 1.210938 -0.566406 1.40625 -0.484375 1.65625 -0.484375 C 1.78125 -0.484375 1.910156 -0.492188 2.046875 -0.515625 L 2.046875 -1.140625 L 1.484375 -1.140625 Z M 1.484375 -1.65625 "/></g></g><g transform="translate(24.180527, 22.258263)"><g><path d="M 0.375 0 L 0.375 -2.9375 L 1 -2.9375 L 1 0 Z M 0.375 0 "/></g></g><g transform="translate(25.547603, 22.258263)"><g><path d="M 2.171875 0 L 1.953125 -0.703125 L 0.890625 -0.703125 L 0.671875 0 L 0 0 L 1.046875 -2.953125 L 1.796875 -2.953125 L 2.84375 0 Z M 1.8125 -1.21875 C 1.613281 -1.851562 1.5 -2.210938 1.46875 -2.296875 C 1.445312 -2.378906 1.429688 -2.445312 1.421875 -2.5 C 1.378906 -2.320312 1.253906 -1.894531 1.046875 -1.21875 Z M 1.8125 -1.21875 "/></g></g></g></svg>