<svg xmlns="http://www.w3.org/2000/svg" xmlns:xlink="http://www.w3.org/1999/xlink" width="500" zoomAndPan="magnify" viewBox="0 0 375 374.999991" height="500" preserveAspectRatio="xMidYMid meet" version="1.0"><defs><g/><clipPath id="eae29342fc"><rect x="0" width="332" y="0" height="226"/></clipPath></defs><g transform="matrix(1, 0, 0, 1, 18, 62)"><g clip-path="url(#eae29342fc)"><g fill="#ffffff" fill-opacity="1"><g transform="translate(0.114578, 188.314361)"><g><path d="M 127.421875 0 L 37.484375 0 C 31.984375 0 26.953125 -1.34375 22.390625 -4.03125 C 17.828125 -6.71875 14.203125 -10.335938 11.515625 -14.890625 C 8.835938 -19.453125 7.5 -24.484375 7.5 -29.984375 L 7.5 -59.96875 L 37.484375 -59.96875 L 37.484375 -29.984375 L 127.421875 -29.984375 L 127.421875 -119.9375 L 67.453125 -119.9375 L 67.453125 -149.90625 L 157.40625 -149.90625 L 157.40625 -29.984375 C 157.40625 -24.609375 156.0625 -19.640625 153.375 -15.078125 C 150.6875 -10.523438 147.09375 -6.875 142.59375 -4.125 C 138.101562 -1.375 133.046875 0 127.421875 0 Z M 127.421875 0 "/></g></g></g><g fill="#ffffff" fill-opacity="1"><g transform="translate(165.023151, 188.314361)"><g><path d="M 127.421875 0 L 37.484375 0 C 31.984375 0 26.953125 -1.34375 22.390625 -4.03125 C 17.828125 -6.71875 14.203125 -10.335938 11.515625 -14.890625 C 8.835938 -19.453125 7.5 -24.484375 7.5 -29.984375 L 7.5 -59.96875 L 37.484375 -59.96875 L 37.484375 -29.984375 L 127.421875 -29.984375 L 127.421875 -119.9375 L 67.453125 -119.9375 L 67.453125 -149.90625 L 157.40625 -149.90625 L 157.40625 -29.984375 C 157.40625 -24.609375 156.0625 -19.640625 153.375 -15.078125 C 150.6875 -10.523438 147.09375 -6.875 142.59375 -4.125 C 138.101562 -1.375 133.046875 0 127.421875 0 Z M 127.421875 0 "/></g></g></g></g></g></svg>