<svg xmlns="http://www.w3.org/2000/svg" xmlns:xlink="http://www.w3.org/1999/xlink" width="500" zoomAndPan="magnify" viewBox="0 0 375 374.999991" height="500" preserveAspectRatio="xMidYMid meet" version="1.0"><defs><g/><clipPath id="2df6462440"><rect x="0" width="375" y="0" height="85"/></clipPath></defs><g transform="matrix(1, 0, 0, 1, 0, 137)"><g clip-path="url(#2df6462440)"><g fill="#ffffff" fill-opacity="1"><g transform="translate(0.0287016, 70.262309)"><g><path d="M 48.296875 0 L 14.203125 0 C 12.117188 0 10.210938 -0.503906 8.484375 -1.515625 C 6.753906 -2.535156 5.378906 -3.910156 4.359375 -5.640625 C 3.347656 -7.367188 2.84375 -9.273438 2.84375 -11.359375 L 2.84375 -22.71875 L 14.203125 -22.71875 L 14.203125 -11.359375 L 48.296875 -11.359375 L 48.296875 -45.453125 L 25.5625 -45.453125 L 25.5625 -56.8125 L 59.65625 -56.8125 L 59.65625 -11.359375 C 59.65625 -9.328125 59.144531 -7.445312 58.125 -5.71875 C 57.101562 -3.988281 55.738281 -2.601562 54.03125 -1.5625 C 52.332031 -0.519531 50.421875 0 48.296875 0 Z M 48.296875 0 "/></g></g></g><g fill="#ffffff" fill-opacity="1"><g transform="translate(62.518534, 70.262309)"><g><path d="M 48.296875 0 L 14.203125 0 C 12.117188 0 10.210938 -0.503906 8.484375 -1.515625 C 6.753906 -2.535156 5.378906 -3.910156 4.359375 -5.640625 C 3.347656 -7.367188 2.84375 -9.273438 2.84375 -11.359375 L 2.84375 -45.453125 C 2.84375 -47.535156 3.347656 -49.441406 4.359375 -51.171875 C 5.378906 -52.898438 6.753906 -54.269531 8.484375 -55.28125 C 10.210938 -56.300781 12.117188 -56.8125 14.203125 -56.8125 L 48.296875 -56.8125 C 50.378906 -56.8125 52.28125 -56.300781 54 -55.28125 C 55.726562 -54.269531 57.101562 -52.898438 58.125 -51.171875 C 59.144531 -49.441406 59.65625 -47.535156 59.65625 -45.453125 L 59.65625 -11.359375 C 59.65625 -9.328125 59.144531 -7.445312 58.125 -5.71875 C 57.101562 -3.988281 55.738281 -2.601562 54.03125 -1.5625 C 52.332031 -0.519531 50.421875 0 48.296875 0 Z M 14.203125 -45.453125 L 14.203125 -11.359375 L 48.296875 -11.359375 L 48.296875 -45.453125 Z M 14.203125 -45.453125 "/></g></g></g><g fill="#ffffff" fill-opacity="1"><g transform="translate(125.008366, 70.262309)"><g><path d="M 59.65625 -56.8125 L 59.65625 -45.453125 L 14.203125 -45.453125 L 14.203125 -34.09375 L 48.296875 -34.09375 C 50.378906 -34.09375 52.28125 -33.582031 54 -32.5625 C 55.726562 -31.539062 57.101562 -30.164062 58.125 -28.4375 C 59.144531 -26.707031 59.65625 -24.800781 59.65625 -22.71875 L 59.65625 -11.359375 C 59.65625 -9.273438 59.144531 -7.367188 58.125 -5.640625 C 57.101562 -3.910156 55.726562 -2.535156 54 -1.515625 C 52.28125 -0.503906 50.378906 0 48.296875 0 L 2.84375 0 L 2.84375 -11.359375 L 48.296875 -11.359375 L 48.296875 -22.71875 L 14.203125 -22.71875 C 12.117188 -22.71875 10.210938 -23.226562 8.484375 -24.25 C 6.753906 -25.269531 5.378906 -26.644531 4.359375 -28.375 C 3.347656 -30.101562 2.84375 -32.007812 2.84375 -34.09375 L 2.84375 -45.453125 C 2.84375 -47.535156 3.347656 -49.441406 4.359375 -51.171875 C 5.378906 -52.898438 6.753906 -54.269531 8.484375 -55.28125 C 10.210938 -56.300781 12.117188 -56.8125 14.203125 -56.8125 Z M 59.65625 -56.8125 "/></g></g></g><g fill="#ffffff" fill-opacity="1"><g transform="translate(187.498199, 70.262309)"><g><path d="M 48.296875 0 L 14.203125 0 C 12.117188 0 10.210938 -0.503906 8.484375 -1.515625 C 6.753906 -2.535156 5.378906 -3.910156 4.359375 -5.640625 C 3.347656 -7.367188 2.84375 -9.273438 2.84375 -11.359375 L 2.84375 -56.8125 L 14.203125 -56.8125 L 14.203125 -11.359375 L 48.296875 -11.359375 L 48.296875 -56.8125 L 59.65625 -56.8125 L 59.65625 -11.359375 C 59.65625 -9.273438 59.144531 -7.367188 58.125 -5.640625 C 57.101562 -3.910156 55.726562 -2.535156 54 -1.515625 C 52.28125 -0.503906 50.378906 0 48.296875 0 Z M 48.296875 0 "/></g></g></g><g fill="#ffffff" fill-opacity="1"><g transform="translate(249.988031, 70.262309)"><g><path d="M 59.65625 -56.8125 L 59.65625 -45.453125 L 14.203125 -45.453125 L 14.203125 -34.09375 L 59.65625 -34.09375 L 59.65625 -22.71875 L 14.203125 -22.71875 L 14.203125 -11.359375 L 59.65625 -11.359375 L 59.65625 0 L 14.203125 0 C 12.117188 0 10.210938 -0.503906 8.484375 -1.515625 C 6.753906 -2.535156 5.378906 -3.910156 4.359375 -5.640625 C 3.347656 -7.367188 2.84375 -9.273438 2.84375 -11.359375 L 2.84375 -45.453125 C 2.84375 -47.535156 3.347656 -49.441406 4.359375 -51.171875 C 5.378906 -52.898438 6.753906 -54.269531 8.484375 -55.28125 C 10.210938 -56.300781 12.117188 -56.8125 14.203125 -56.8125 Z M 59.65625 -56.8125 "/></g></g></g><g fill="#ffffff" fill-opacity="1"><g transform="translate(312.477864, 70.262309)"><g><path d="M 59.65625 0 L 14.203125 0 C 12.117188 0 10.210938 -0.503906 8.484375 -1.515625 C 6.753906 -2.535156 5.378906 -3.910156 4.359375 -5.640625 C 3.347656 -7.367188 2.84375 -9.273438 2.84375 -11.359375 L 2.84375 -56.8125 L 14.203125 -56.8125 L 14.203125 -11.359375 L 59.65625 -11.359375 Z M 59.65625 0 "/></g></g></g></g></g></svg>